<svg width="68" height="16" viewBox="0 0 68 16" fill="none" xmlns="http://www.w3.org/2000/svg">
<path d="M52.3416 8.78431C52.0671 8.78431 51.9298 8.65359 51.9298 8.39216V3.92157C51.9298 3.66013 52.0671 3.52941 52.3416 3.52941H55.773V2.39216H52.3024C52.0279 2.39216 51.8906 2.26144 51.8906 2V0.588236C51.8906 0.326798 52.0279 0.196079 52.3024 0.196079H58.6161C58.8906 0.196079 59.0279 0.326798 59.0279 0.588236V5C59.0279 5.26144 58.8906 5.39216 58.6161 5.39216H55.1455V6.58824H56.1455C57.0736 6.58824 57.8318 6.56209 58.42 6.5098C59.0213 6.45752 59.5704 6.35294 60.0671 6.19608V0.470589C60.0671 0.196079 60.1978 0.0588239 60.4592 0.0588239H62.7141C62.9756 0.0588239 63.1063 0.196079 63.1063 0.470589V2.96078H64.1651V0.411765C64.1651 0.137255 64.2958 0 64.5573 0H66.8318C67.0932 0 67.2239 0.137255 67.2239 0.411765V8.54902C67.2239 8.81046 67.0932 8.94118 66.8318 8.94118H64.5573C64.2958 8.94118 64.1651 8.81046 64.1651 8.54902V5.90196H63.1063V8.45098C63.1063 8.71242 62.9756 8.84314 62.7141 8.84314H60.4592C60.1978 8.84314 60.0671 8.71242 60.0671 8.45098V8.21569C59.6226 8.39869 59.054 8.54248 58.3612 8.64706C57.6684 8.73856 56.7991 8.78431 55.7534 8.78431H52.3416ZM52.4985 10.3922C52.4985 10.1176 52.6292 9.98039 52.8906 9.98039H66.8122C67.0867 9.98039 67.2239 10.1111 67.2239 10.3725V15.5098C67.2239 15.7712 67.0867 15.902 66.8122 15.902H52.9102C52.6357 15.902 52.4985 15.7712 52.4985 15.5098V10.3922ZM56.2043 12.1765V13.7255H63.4985V12.1765H56.2043Z" fill="#00BB86"/>
<path d="M35.5807 15.902C35.3193 15.902 35.1885 15.7712 35.1885 15.5098V11.8235C35.1885 11.549 35.3193 11.4118 35.5807 11.4118H45.5807V10.5882H35.5807C35.3193 10.5882 35.1885 10.4575 35.1885 10.1961V8.98039C35.1885 8.71896 35.3193 8.58824 35.5807 8.58824H49.0513C49.3127 8.58824 49.4434 8.71896 49.4434 8.98039V12.6078C49.4434 12.8693 49.3127 13 49.0513 13H39.0709V13.8824H49.2277C49.4892 13.8824 49.6199 14.0131 49.6199 14.2745V15.5098C49.6199 15.7712 49.4892 15.902 49.2277 15.902H35.5807ZM37.9925 3.21569C38.28 3.21569 38.4173 3.35294 38.4042 3.62745L38.2277 4.80392H39.9336C41.0317 4.80392 42.097 4.75164 43.1297 4.64706C44.1755 4.54248 45.0709 4.34641 45.816 4.05882V0.411765C45.816 0.137255 45.9532 0 46.2277 0H49.0317C49.3062 0 49.4434 0.137255 49.4434 0.411765V2.05882H50.365C50.6264 2.05882 50.7572 2.19608 50.7572 2.47059V4.78431C50.7572 5.04575 50.6264 5.17647 50.365 5.17647H49.4434V7.19608C49.4434 7.45752 49.3062 7.58824 49.0317 7.58824H46.2277C45.9532 7.58824 45.816 7.45752 45.816 7.19608V6.29412C45.1624 6.60784 44.2866 6.84967 43.1885 7.01961C42.1036 7.17647 40.8879 7.2549 39.5415 7.2549H35.0317C34.901 7.2549 34.7964 7.22222 34.7179 7.15686C34.6395 7.0915 34.6068 6.98693 34.6199 6.84314L35.0905 3.58824C35.1166 3.33987 35.2539 3.21569 35.5023 3.21569H37.9925ZM34.4238 0.588236C34.4238 0.326798 34.5611 0.196079 34.8356 0.196079H43.9336C44.2081 0.196079 44.3454 0.326798 44.3454 0.588236V2.23529C44.3454 2.49673 44.2081 2.62745 43.9336 2.62745H34.8356C34.5611 2.62745 34.4238 2.49673 34.4238 2.23529V0.588236Z" fill="#00BB86"/>
<path d="M20.6431 3.90196C20.9177 3.90196 21.0549 4.03268 21.0549 4.29412V10.2745C21.0549 11.2549 21.153 11.9477 21.349 12.3529C21.5582 12.7451 21.8981 12.9412 22.3686 12.9412C22.8523 12.9412 23.1922 12.7451 23.3882 12.3529C23.5974 11.9477 23.702 11.2549 23.702 10.2745V6.66667C23.702 6.10458 23.6562 5.61438 23.5647 5.19608C23.4863 4.76471 23.3425 4.41177 23.1333 4.13726C22.9373 3.84967 22.6628 3.64052 22.3098 3.5098C21.9569 3.36601 21.519 3.29412 20.9961 3.29412H17.4079C17.1333 3.29412 16.9961 3.1634 16.9961 2.90196V0.764706C16.9961 0.503269 17.1333 0.37255 17.4079 0.37255H20.8981C23.1464 0.37255 24.7804 0.882354 25.8 1.90196C26.8327 2.9085 27.349 4.53595 27.349 6.78431V10.1373C27.349 11.2484 27.2314 12.1765 26.9961 12.9216C26.7608 13.6536 26.4275 14.2418 25.9961 14.6863C25.5647 15.1307 25.0418 15.4444 24.4275 15.6275C23.8131 15.8105 23.1268 15.902 22.3686 15.902C21.6235 15.902 20.9438 15.8105 20.3294 15.6275C19.715 15.4444 19.1922 15.1307 18.7608 14.6863C18.3294 14.2418 17.9961 13.6536 17.7608 12.9216C17.5255 12.1765 17.4079 11.2484 17.4079 10.1373V4.29412C17.4079 4.03268 17.5386 3.90196 17.8 3.90196H20.6431ZM29.2706 16C29.0092 16 28.8784 15.8693 28.8784 15.6078V0.411765C28.8784 0.137255 29.0092 0 29.2706 0H32.1137C32.3752 0 32.5059 0.137255 32.5059 0.411765V15.6078C32.5059 15.8693 32.3752 16 32.1137 16H29.2706Z" fill="#00BB86"/>
<path d="M11.6078 7.58824C11.3333 7.58824 11.1961 7.45752 11.1961 7.19608V0.411765C11.1961 0.137255 11.3333 0 11.6078 0H14.4118C14.6863 0 14.8235 0.137255 14.8235 0.411765V2.05882H15.7451C16.0065 2.05882 16.1372 2.19608 16.1372 2.47059V4.78431C16.1372 5.04575 16.0065 5.17647 15.7451 5.17647H14.8235V7.19608C14.8235 7.45752 14.6863 7.58824 14.4118 7.58824H11.6078ZM0.686274 7.60784C0.424836 7.63399 0.294117 7.50327 0.294117 7.21569V5.35294C0.294117 5.0915 0.424836 4.96078 0.686274 4.96078C1.35294 4.93464 1.98039 4.86928 2.56863 4.76471C3.16993 4.66013 3.69934 4.51634 4.15686 4.33333C4.62745 4.13726 5.0196 3.91503 5.33333 3.66667C5.64705 3.40523 5.86274 3.11111 5.98039 2.78431H0.392157C0.130719 2.78431 0 2.6536 0 2.39216V0.588236C0 0.326798 0.130719 0.196079 0.392157 0.196079H9.5098C9.78431 0.196079 9.92156 0.333334 9.92156 0.607843V1.92157C9.92156 2.6536 9.78431 3.30065 9.5098 3.86275C9.23529 4.42484 8.86274 4.91503 8.39215 5.33333C7.93463 5.73856 7.39869 6.08497 6.78431 6.37255C6.16993 6.64706 5.52287 6.87582 4.84313 7.05882C4.1634 7.22876 3.46405 7.35948 2.7451 7.45098C2.02614 7.52941 1.33987 7.5817 0.686274 7.60784ZM4.27451 11.4118H14.2941C14.5555 11.4118 14.6863 11.5425 14.6863 11.8039V12.6078C14.6863 12.8693 14.5555 13 14.2941 13H4.27451V13.8627H14.6078C14.8693 13.8627 15 13.9935 15 14.2549V15.5098C15 15.7712 14.8693 15.902 14.6078 15.902H0.960784C0.699346 15.902 0.568627 15.7712 0.568627 15.5098V8.98039C0.568627 8.71896 0.699346 8.58824 0.960784 8.58824H14.4314C14.6928 8.58824 14.8235 8.71896 14.8235 8.98039V10.1765C14.8235 10.4379 14.6928 10.5686 14.4314 10.5686H4.27451V11.4118Z" fill="#00BB86"/>
</svg>
